<svg xmlns="http://www.w3.org/2000/svg" xmlns:xlink="http://www.w3.org/1999/xlink" viewBox="379.0755 182.2515 321.3439 84.1841" width="321.3439" height="84.1841" preserveAspectRatio="none"><defs/><style>.companyName883a75a9-30bd-45f8-9cb8-f35aa3c1a590 {fill:#FFFFFF;fill-opacity:1;}.icon1883a75a9-30bd-45f8-9cb8-f35aa3c1a590 {fill:#FFFFFF;fill-opacity:1;}.icon2883a75a9-30bd-45f8-9cb8-f35aa3c1a590 {fill:#BAAE57;fill-opacity:1;}.icon3-str883a75a9-30bd-45f8-9cb8-f35aa3c1a590 {stroke:#E192BB;stroke-opacity:1;}.icon3883a75a9-30bd-45f8-9cb8-f35aa3c1a590 {fill:#E192BB;fill-opacity:1;}.text883a75a9-30bd-45f8-9cb8-f35aa3c1a590 {fill:#FFF;fill-opacity:1;}</style><g opacity="1" transform="rotate(0 445.5806 238.4356)"> <svg width="174.2552" height="28" x="445.5806" y="238.4356" version="1.1" preserveAspectRatio="none" viewBox="4.32 -28.64 530.4 85.24000000000001"> <g transform="matrix(1 0 0 1 0 0)" class="text883a75a9-30bd-45f8-9cb8-f35aa3c1a590"><path id="id-883a75a9-30bd-45f8-9cb8-f35aa3c1a5906izo4zJp44" d="M15.20-26.80Q22.28-26.80 25.40-21.20L25.40-21.20L22.64-18.96Q21.44-21.60 19.78-22.70Q18.12-23.80 15.24-23.80L15.24-23.80Q12.20-23.80 10.46-22.54Q8.72-21.28 8.72-19.32L8.72-19.32Q8.72-18.04 9.40-17.20Q10.08-16.36 11.66-15.74Q13.24-15.12 16.04-14.64L16.04-14.64Q21.28-13.76 23.46-12Q25.64-10.24 25.64-7.12L25.64-7.12Q25.64-4.88 24.38-3.18Q23.12-1.48 20.80-0.54Q18.48 0.40 15.44 0.40L15.44 0.40Q11.44 0.40 8.62-1.16Q5.80-2.72 4.32-5.32L4.32-5.32L7.08-7.56Q8.16-5.20 10.26-3.90Q12.36-2.60 15.52-2.60L15.52-2.60Q18.64-2.60 20.48-3.74Q22.32-4.88 22.32-6.96L22.32-6.96Q22.32-8.72 20.72-9.76Q19.12-10.80 15.04-11.52L15.04-11.52Q9.76-12.44 7.56-14.16Q5.36-15.88 5.36-18.96L5.36-18.96Q5.36-21.08 6.56-22.88Q7.76-24.68 10-25.74Q12.24-26.80 15.20-26.80L15.20-26.80Z M48.92-20L39.52 3.36Q38.36 6.24 36.92 7.42Q35.48 8.60 33.20 8.60L33.20 8.60Q31.68 8.60 30.66 8.20Q29.64 7.80 28.80 6.92L28.80 6.92L29.92 4.20Q31.08 5.80 33.16 5.80L33.16 5.80Q34.32 5.80 35.22 5.10Q36.12 4.40 36.80 2.56L36.80 2.56L37.84-0.04L29.48-20L33.12-20L38.12-6.96L39.36-3.40L40.80-7.36L45.48-20L48.92-20Z M64.24-20.40Q67.64-20.40 69.84-18.44Q72.04-16.48 72.04-12.80L72.04-12.80L72.04 0L68.84 0L68.84-11.68Q68.84-14.80 67.50-16.20Q66.16-17.60 63.92-17.60L63.92-17.60Q62.32-17.60 60.92-16.90Q59.52-16.20 58.62-14.62Q57.72-13.04 57.72-10.64L57.72-10.64L57.72 0L54.52 0L54.52-20L57.32-20L57.52-16.88Q58.52-18.68 60.28-19.54Q62.04-20.40 64.24-20.40L64.24-20.40Z M88.92-20.40Q91.92-20.40 93.98-19.02Q96.04-17.64 97.20-15.08L97.20-15.08L94.16-13.64Q92.88-17.60 88.84-17.60L88.84-17.60Q85.84-17.60 84.14-15.58Q82.44-13.56 82.44-10L82.44-10Q82.44-6.44 84.14-4.42Q85.84-2.40 88.84-2.40L88.84-2.40Q91.16-2.40 92.58-3.46Q94.00-4.52 94.44-6.52L94.44-6.52L97.40-5.48Q96.36-2.68 94.20-1.14Q92.04 0.40 88.92 0.40L88.92 0.40Q84.40 0.40 81.82-2.36Q79.24-5.12 79.24-10L79.24-10Q79.24-14.88 81.82-17.64Q84.40-20.40 88.92-20.40L88.92-20.40Z M105.84-23.84Q104.76-23.84 104.10-24.50Q103.44-25.16 103.44-26.24L103.44-26.24Q103.44-27.32 104.10-27.98Q104.76-28.64 105.84-28.64L105.84-28.64Q106.92-28.64 107.58-27.98Q108.24-27.32 108.24-26.24L108.24-26.24Q108.24-25.16 107.58-24.50Q106.92-23.84 105.84-23.84L105.84-23.84ZM107.44-20L107.44 0L104.24 0L104.24-20L107.44-20Z M125.80-20.40Q129.20-20.40 131.40-18.44Q133.60-16.48 133.60-12.80L133.60-12.80L133.60 0L130.40 0L130.40-11.68Q130.40-14.80 129.06-16.20Q127.72-17.60 125.48-17.60L125.48-17.60Q123.88-17.60 122.48-16.90Q121.08-16.20 120.18-14.62Q119.28-13.04 119.28-10.64L119.28-10.64L119.28 0L116.08 0L116.08-20L118.88-20L119.08-16.88Q120.08-18.68 121.84-19.54Q123.60-20.40 125.80-20.40L125.80-20.40Z M153.20-2.56Q156.04-2.56 157.64-1.28Q159.24 0 159.24 2.20L159.24 2.20Q159.24 4.12 157.92 5.58Q156.60 7.04 154.34 7.82Q152.08 8.60 149.36 8.60L149.36 8.60Q144.80 8.60 142.48 7.14Q140.16 5.68 140.16 3.32L140.16 3.32Q140.16 1.96 141.10 0.92Q142.04-0.12 143.68-0.56L143.68-0.56Q142.44-1.16 141.70-2.08Q140.96-3 140.96-4.24L140.96-4.24Q140.96-5.72 141.76-6.70Q142.56-7.68 143.96-8.16L143.96-8.16Q142.52-9.04 141.78-10.46Q141.04-11.88 141.04-13.64L141.04-13.64Q141.04-15.60 142.08-17.14Q143.12-18.68 145.00-19.54Q146.88-20.40 149.24-20.40L149.24-20.40Q151.48-20.40 153.32-19.60L153.32-19.60Q154.44-23.68 158.96-23.68L158.96-23.68L159.68-20.88Q155.76-20.88 154.92-18.68L154.92-18.68Q156.12-17.76 156.78-16.48Q157.44-15.20 157.44-13.64L157.44-13.64Q157.44-11.68 156.40-10.14Q155.36-8.60 153.48-7.74Q151.60-6.88 149.24-6.88L149.24-6.88Q147.48-6.88 146.16-7.24L146.16-7.24Q144.96-6.96 144.44-6.36Q143.92-5.76 143.92-4.72L143.92-4.72Q143.92-3.68 144.64-3.12Q145.36-2.56 146.56-2.56L146.56-2.56L153.20-2.56ZM149.24-17.80Q147.16-17.80 145.76-16.64Q144.36-15.48 144.36-13.64L144.36-13.64Q144.36-11.80 145.76-10.64Q147.16-9.48 149.24-9.48L149.24-9.48Q151.32-9.48 152.72-10.64Q154.12-11.80 154.12-13.64L154.12-13.64Q154.12-15.48 152.72-16.64Q151.32-17.80 149.24-17.80L149.24-17.80ZM149.72 5.92Q152.76 5.92 154.52 4.94Q156.28 3.96 156.28 2.56L156.28 2.56Q156.28 1.40 155.38 0.80Q154.48 0.20 152.32 0.20L152.32 0.20L146.96 0.20Q145.12 0.20 144.12 0.86Q143.12 1.52 143.12 2.68L143.12 2.68Q143.12 4.20 144.80 5.06Q146.48 5.92 149.72 5.92L149.72 5.92Z M183.84-26.40L183.84 0L180.64 0L180.64-26.40L183.84-26.40Z M202.60-20.40Q206.00-20.40 208.20-18.44Q210.40-16.48 210.40-12.80L210.40-12.80L210.40 0L207.20 0L207.20-11.68Q207.20-14.80 205.86-16.20Q204.52-17.60 202.28-17.60L202.28-17.60Q200.68-17.60 199.28-16.90Q197.88-16.20 196.98-14.62Q196.08-13.04 196.08-10.64L196.08-10.64L196.08 0L192.88 0L192.88-20L195.68-20L195.88-16.88Q196.88-18.68 198.64-19.54Q200.40-20.40 202.60-20.40L202.60-20.40Z M228.56-20.40Q231.96-20.40 234.16-18.44Q236.36-16.48 236.36-12.80L236.36-12.80L236.36 0L233.16 0L233.16-11.68Q233.16-14.80 231.82-16.20Q230.48-17.60 228.24-17.60L228.24-17.60Q226.64-17.60 225.24-16.90Q223.84-16.20 222.94-14.62Q222.04-13.04 222.04-10.64L222.04-10.64L222.04 0L218.84 0L218.84-20L221.64-20L221.84-16.88Q222.84-18.68 224.60-19.54Q226.36-20.40 228.56-20.40L228.56-20.40Z M253.24-20.40Q257.76-20.40 260.34-17.64Q262.92-14.88 262.92-10L262.92-10Q262.92-5.12 260.34-2.36Q257.76 0.40 253.24 0.40L253.24 0.40Q248.72 0.40 246.14-2.36Q243.56-5.12 243.56-10L243.56-10Q243.56-14.88 246.14-17.64Q248.72-20.40 253.24-20.40L253.24-20.40ZM253.24-17.64Q250.20-17.64 248.48-15.60Q246.76-13.56 246.76-10L246.76-10Q246.76-6.44 248.48-4.40Q250.20-2.36 253.24-2.36L253.24-2.36Q256.28-2.36 258-4.40Q259.72-6.44 259.72-10L259.72-10Q259.72-13.56 258-15.60Q256.28-17.64 253.24-17.64L253.24-17.64Z M283.56-20L286.92-20L278.60 0L275.40 0L267.08-20L270.72-20L277.04-3.24L283.56-20Z M308.20-2.32Q309-2.32 309.80-2.52L309.80-2.52L309.60 0Q308.48 0.40 307.20 0.40L307.20 0.40Q305.64 0.40 304.74-0.28Q303.84-0.96 303.60-2.56L303.60-2.56Q302.68-1.16 300.90-0.38Q299.12 0.40 297.16 0.40L297.16 0.40Q294.20 0.40 292.28-0.98Q290.36-2.36 290.36-4.96L290.36-4.96Q290.36-7.24 292.36-8.90Q294.36-10.56 298.16-11.20L298.16-11.20L303.48-12.08L303.48-13.20Q303.48-15.20 302.24-16.40Q301-17.60 298.80-17.60L298.80-17.60Q296.80-17.60 295.34-16.64Q293.88-15.68 293.08-13.80L293.08-13.80L290.72-15.52Q291.52-17.76 293.70-19.08Q295.88-20.40 298.80-20.40L298.80-20.40Q302.36-20.40 304.52-18.68Q306.68-16.96 306.68-13.60L306.68-13.60L306.68-3.76Q306.68-3.04 307.04-2.68Q307.40-2.32 308.20-2.32L308.20-2.32ZM297.32-2.40Q299.84-2.40 301.66-3.60Q303.48-4.80 303.48-6.72L303.48-6.72L303.48-9.48L299-8.64Q296.32-8.16 295-7.26Q293.68-6.36 293.68-4.96L293.68-4.96Q293.68-3.72 294.64-3.06Q295.60-2.40 297.32-2.40L297.32-2.40Z M325.96-4.08L327.08-1.40Q325.08 0.40 321.92 0.40L321.92 0.40Q319.48 0.40 317.94-0.92Q316.40-2.24 316.36-4.96L316.36-4.96L316.36-17.24L312.36-17.24L312.36-20L316.36-20L316.36-24.80L319.56-25.68L319.56-20L326.96-20L326.96-17.24L319.56-17.24L319.56-5.52Q319.56-4.08 320.38-3.34Q321.20-2.60 322.56-2.60L322.56-2.60Q324.48-2.60 325.96-4.08L325.96-4.08Z M334.40-23.84Q333.32-23.84 332.66-24.50Q332.00-25.16 332.00-26.24L332.00-26.24Q332.00-27.32 332.66-27.98Q333.32-28.64 334.40-28.64L334.40-28.64Q335.48-28.64 336.14-27.98Q336.80-27.32 336.80-26.24L336.80-26.24Q336.80-25.16 336.14-24.50Q335.48-23.84 334.40-23.84L334.40-23.84ZM336.00-20L336.00 0L332.80 0L332.80-20L336.00-20Z M353.08-20.40Q357.60-20.40 360.18-17.64Q362.76-14.88 362.76-10L362.76-10Q362.76-5.12 360.18-2.36Q357.60 0.40 353.08 0.40L353.08 0.40Q348.56 0.40 345.98-2.36Q343.40-5.12 343.40-10L343.40-10Q343.40-14.88 345.98-17.64Q348.56-20.40 353.08-20.40L353.08-20.40ZM353.08-17.64Q350.04-17.64 348.32-15.60Q346.60-13.56 346.60-10L346.60-10Q346.60-6.44 348.32-4.40Q350.04-2.36 353.08-2.36L353.08-2.36Q356.12-2.36 357.84-4.40Q359.56-6.44 359.56-10L359.56-10Q359.56-13.56 357.84-15.60Q356.12-17.64 353.08-17.64L353.08-17.64Z M379.88-20.40Q383.28-20.40 385.48-18.44Q387.68-16.48 387.68-12.80L387.68-12.80L387.68 0L384.48 0L384.48-11.68Q384.48-14.80 383.14-16.20Q381.80-17.60 379.56-17.60L379.56-17.60Q377.96-17.60 376.56-16.90Q375.16-16.20 374.26-14.62Q373.36-13.04 373.36-10.64L373.36-10.64L373.36 0L370.16 0L370.16-20L372.96-20L373.16-16.88Q374.16-18.68 375.92-19.54Q377.68-20.40 379.88-20.40L379.88-20.40Z M7.52 21.60L7.52 48L4.32 48L4.32 21.60L7.52 21.60Z M27.92 45.44Q30.76 45.44 32.36 46.72Q33.96 48 33.96 50.20L33.96 50.20Q33.96 52.12 32.64 53.58Q31.32 55.04 29.06 55.82Q26.80 56.60 24.08 56.60L24.08 56.60Q19.52 56.60 17.20 55.14Q14.88 53.68 14.88 51.32L14.88 51.32Q14.88 49.96 15.82 48.92Q16.76 47.88 18.40 47.44L18.40 47.44Q17.16 46.84 16.42 45.92Q15.68 45 15.68 43.76L15.68 43.76Q15.68 42.28 16.48 41.30Q17.28 40.32 18.68 39.84L18.68 39.84Q17.24 38.96 16.50 37.54Q15.76 36.12 15.76 34.36L15.76 34.36Q15.76 32.40 16.80 30.86Q17.84 29.32 19.72 28.46Q21.60 27.60 23.96 27.60L23.96 27.60Q26.20 27.60 28.04 28.40L28.04 28.40Q29.16 24.32 33.68 24.32L33.68 24.32L34.40 27.12Q30.48 27.12 29.64 29.32L29.64 29.32Q30.84 30.24 31.50 31.52Q32.16 32.80 32.16 34.36L32.16 34.36Q32.16 36.32 31.12 37.86Q30.08 39.40 28.20 40.26Q26.32 41.12 23.96 41.12L23.96 41.12Q22.20 41.12 20.88 40.76L20.88 40.76Q19.68 41.04 19.16 41.64Q18.64 42.24 18.64 43.28L18.64 43.28Q18.64 44.32 19.36 44.88Q20.08 45.44 21.28 45.44L21.28 45.44L27.92 45.44ZM23.96 30.20Q21.88 30.20 20.48 31.36Q19.08 32.52 19.08 34.36L19.08 34.36Q19.08 36.20 20.48 37.36Q21.88 38.52 23.96 38.52L23.96 38.52Q26.04 38.52 27.44 37.36Q28.84 36.20 28.84 34.36L28.84 34.36Q28.84 32.52 27.44 31.36Q26.04 30.20 23.96 30.20L23.96 30.20ZM24.44 53.92Q27.48 53.92 29.24 52.94Q31 51.96 31 50.56L31 50.56Q31 49.40 30.10 48.80Q29.20 48.20 27.04 48.20L27.04 48.20L21.68 48.20Q19.84 48.20 18.84 48.86Q17.84 49.52 17.84 50.68L17.84 50.68Q17.84 52.20 19.52 53.06Q21.20 53.92 24.44 53.92L24.44 53.92Z M49.64 27.60Q53.04 27.60 55.24 29.56Q57.44 31.52 57.44 35.20L57.44 35.20L57.44 48L54.24 48L54.24 36.32Q54.24 33.20 52.90 31.80Q51.56 30.40 49.32 30.40L49.32 30.40Q47.72 30.40 46.32 31.10Q44.92 31.80 44.02 33.38Q43.12 34.96 43.12 37.36L43.12 37.36L43.12 48L39.92 48L39.92 28L42.72 28L42.92 31.12Q43.92 29.32 45.68 28.46Q47.44 27.60 49.64 27.60L49.64 27.60Z M67.48 24.16Q66.40 24.16 65.74 23.50Q65.08 22.84 65.08 21.76L65.08 21.76Q65.08 20.68 65.74 20.02Q66.40 19.36 67.48 19.36L67.48 19.36Q68.56 19.36 69.22 20.02Q69.88 20.68 69.88 21.76L69.88 21.76Q69.88 22.84 69.22 23.50Q68.56 24.16 67.48 24.16L67.48 24.16ZM69.08 28L69.08 48L65.88 48L65.88 28L69.08 28Z M88.84 43.92L89.96 46.60Q87.96 48.40 84.80 48.40L84.80 48.40Q82.36 48.40 80.82 47.08Q79.28 45.76 79.24 43.04L79.24 43.04L79.24 30.76L75.24 30.76L75.24 28L79.24 28L79.24 23.20L82.44 22.32L82.44 28L89.84 28L89.84 30.76L82.44 30.76L82.44 42.48Q82.44 43.92 83.26 44.66Q84.08 45.40 85.44 45.40L85.44 45.40Q87.36 45.40 88.84 43.92L88.84 43.92Z M97.28 24.16Q96.20 24.16 95.54 23.50Q94.88 22.84 94.88 21.76L94.88 21.76Q94.88 20.68 95.54 20.02Q96.20 19.36 97.28 19.36L97.28 19.36Q98.36 19.36 99.02 20.02Q99.68 20.68 99.68 21.76L99.68 21.76Q99.68 22.84 99.02 23.50Q98.36 24.16 97.28 24.16L97.28 24.16ZM98.88 28L98.88 48L95.68 48L95.68 28L98.88 28Z M117.24 27.60Q120.64 27.60 122.84 29.56Q125.04 31.52 125.04 35.20L125.04 35.20L125.04 48L121.84 48L121.84 36.32Q121.84 33.20 120.50 31.80Q119.16 30.40 116.92 30.40L116.92 30.40Q115.32 30.40 113.92 31.10Q112.52 31.80 111.62 33.38Q110.72 34.96 110.72 37.36L110.72 37.36L110.72 48L107.52 48L107.52 28L110.32 28L110.52 31.12Q111.52 29.32 113.28 28.46Q115.04 27.60 117.24 27.60L117.24 27.60Z M144.64 45.44Q147.48 45.44 149.08 46.72Q150.68 48 150.68 50.20L150.68 50.20Q150.68 52.12 149.36 53.58Q148.04 55.04 145.78 55.82Q143.52 56.60 140.80 56.60L140.80 56.60Q136.24 56.60 133.92 55.14Q131.60 53.68 131.60 51.32L131.60 51.32Q131.60 49.96 132.54 48.92Q133.48 47.88 135.12 47.44L135.12 47.44Q133.88 46.84 133.14 45.92Q132.40 45 132.40 43.76L132.40 43.76Q132.40 42.28 133.20 41.30Q134.00 40.32 135.40 39.84L135.40 39.84Q133.96 38.96 133.22 37.54Q132.48 36.12 132.48 34.36L132.48 34.36Q132.48 32.40 133.52 30.86Q134.56 29.32 136.44 28.46Q138.32 27.60 140.68 27.60L140.68 27.60Q142.92 27.60 144.76 28.40L144.76 28.40Q145.88 24.32 150.40 24.32L150.40 24.32L151.12 27.12Q147.20 27.12 146.36 29.32L146.36 29.32Q147.56 30.24 148.22 31.52Q148.88 32.80 148.88 34.36L148.88 34.36Q148.88 36.32 147.84 37.86Q146.80 39.40 144.92 40.26Q143.04 41.12 140.68 41.12L140.68 41.12Q138.92 41.12 137.60 40.76L137.60 40.76Q136.40 41.04 135.88 41.64Q135.36 42.24 135.36 43.28L135.36 43.28Q135.36 44.32 136.08 44.88Q136.80 45.44 138.00 45.44L138.00 45.44L144.64 45.44ZM140.68 30.20Q138.60 30.20 137.20 31.36Q135.80 32.52 135.80 34.36L135.80 34.36Q135.80 36.20 137.20 37.36Q138.60 38.52 140.68 38.52L140.68 38.52Q142.76 38.52 144.16 37.36Q145.56 36.20 145.56 34.36L145.56 34.36Q145.56 32.52 144.16 31.36Q142.76 30.20 140.68 30.20L140.68 30.20ZM141.16 53.92Q144.20 53.92 145.96 52.94Q147.72 51.96 147.72 50.56L147.72 50.56Q147.72 49.40 146.82 48.80Q145.92 48.20 143.76 48.20L143.76 48.20L138.40 48.20Q136.56 48.20 135.56 48.86Q134.56 49.52 134.56 50.68L134.56 50.68Q134.56 52.20 136.24 53.06Q137.92 53.92 141.16 53.92L141.16 53.92Z M175.28 45L191.20 45L191.20 48L172.08 48L172.08 21.60L190.60 21.60L190.60 24.60L175.28 24.60L175.28 33.12L187.20 33.12L187.20 36.12L175.28 36.12L175.28 45Z M207.92 27.60Q211.32 27.60 213.52 29.56Q215.72 31.52 215.72 35.20L215.72 35.20L215.72 48L212.52 48L212.52 36.32Q212.52 33.20 211.18 31.80Q209.84 30.40 207.60 30.40L207.60 30.40Q206 30.40 204.60 31.10Q203.20 31.80 202.30 33.38Q201.40 34.96 201.40 37.36L201.40 37.36L201.40 48L198.20 48L198.20 28L201 28L201.20 31.12Q202.20 29.32 203.96 28.46Q205.72 27.60 207.92 27.60L207.92 27.60Z M235.00 43.92L236.12 46.60Q234.12 48.40 230.96 48.40L230.96 48.40Q228.52 48.40 226.98 47.08Q225.44 45.76 225.40 43.04L225.40 43.04L225.40 30.76L221.40 30.76L221.40 28L225.40 28L225.40 23.20L228.60 22.32L228.60 28L236.00 28L236.00 30.76L228.60 30.76L228.60 42.48Q228.60 43.92 229.42 44.66Q230.24 45.40 231.60 45.40L231.60 45.40Q233.52 45.40 235.00 43.92L235.00 43.92Z M251.28 27.60Q252.72 27.60 253.48 28L253.48 28L252.84 31.12Q251.88 30.60 250.32 30.60L250.32 30.60Q249.04 30.60 247.82 31.34Q246.60 32.08 245.82 33.58Q245.04 35.08 245.04 37.20L245.04 37.20L245.04 48L241.84 48L241.84 28L244.44 28L244.88 31.28Q246.56 27.60 251.28 27.60L251.28 27.60Z M275.88 36.96Q275.88 38.08 275.72 39.20L275.72 39.20L260.64 39.20Q260.92 42.24 262.66 43.92Q264.40 45.60 267.16 45.60L267.16 45.60Q269.36 45.60 270.82 44.84Q272.28 44.08 272.80 42.64L272.80 42.64L275.48 44.04Q274.28 46.16 272.28 47.28Q270.28 48.40 267.16 48.40L267.16 48.40Q262.64 48.40 260.06 45.64Q257.48 42.88 257.48 38L257.48 38Q257.48 33.12 259.94 30.36Q262.40 27.60 266.92 27.60L266.92 27.60Q269.72 27.60 271.76 28.84Q273.80 30.08 274.84 32.20Q275.88 34.32 275.88 36.96L275.88 36.96ZM266.92 30.40Q264.28 30.40 262.66 31.96Q261.04 33.52 260.68 36.36L260.68 36.36L272.80 36.36Q272.48 33.56 270.96 31.98Q269.44 30.40 266.92 30.40L266.92 30.40Z M293.00 27.60Q297.20 27.60 299.66 30.38Q302.12 33.16 302.12 38L302.12 38Q302.12 42.84 299.66 45.62Q297.20 48.40 293.00 48.40L293.00 48.40Q290.80 48.40 289.06 47.44Q287.32 46.48 286.36 44.88L286.36 44.88L286.36 56.40L283.16 56.40L283.16 28L285.96 28L286.16 31.48Q287.04 29.72 288.86 28.66Q290.68 27.60 293.00 27.60L293.00 27.60ZM292.64 45.60Q295.56 45.60 297.24 43.54Q298.92 41.48 298.92 38L298.92 38Q298.92 34.52 297.24 32.46Q295.56 30.40 292.64 30.40L292.64 30.40Q289.76 30.40 288.06 32.40Q286.36 34.40 286.36 37.76L286.36 37.76L286.36 38.24Q286.36 41.60 288.06 43.60Q289.76 45.60 292.64 45.60L292.64 45.60Z M319.00 27.60Q320.44 27.60 321.20 28L321.20 28L320.56 31.12Q319.60 30.60 318.04 30.60L318.04 30.60Q316.76 30.60 315.54 31.34Q314.32 32.08 313.54 33.58Q312.76 35.08 312.76 37.20L312.76 37.20L312.76 48L309.56 48L309.56 28L312.16 28L312.60 31.28Q314.28 27.60 319.00 27.60L319.00 27.60Z M343.60 36.96Q343.60 38.08 343.44 39.20L343.44 39.20L328.36 39.20Q328.64 42.24 330.38 43.92Q332.12 45.60 334.88 45.60L334.88 45.60Q337.08 45.60 338.54 44.84Q340.00 44.08 340.52 42.64L340.52 42.64L343.20 44.04Q342.00 46.16 340.00 47.28Q338.00 48.40 334.88 48.40L334.88 48.40Q330.36 48.40 327.78 45.64Q325.20 42.88 325.20 38L325.20 38Q325.20 33.12 327.66 30.36Q330.12 27.60 334.64 27.60L334.64 27.60Q337.44 27.60 339.48 28.84Q341.52 30.08 342.56 32.20Q343.60 34.32 343.60 36.96L343.60 36.96ZM334.64 30.40Q332.00 30.40 330.38 31.96Q328.76 33.52 328.40 36.36L328.40 36.36L340.52 36.36Q340.20 33.56 338.68 31.98Q337.16 30.40 334.64 30.40L334.64 30.40Z M360.60 27.60Q364.00 27.60 366.20 29.56Q368.40 31.52 368.40 35.20L368.40 35.20L368.40 48L365.20 48L365.20 36.32Q365.20 33.20 363.86 31.80Q362.52 30.40 360.28 30.40L360.28 30.40Q358.68 30.40 357.28 31.10Q355.88 31.80 354.98 33.38Q354.08 34.96 354.08 37.36L354.08 37.36L354.08 48L350.88 48L350.88 28L353.68 28L353.88 31.12Q354.88 29.32 356.64 28.46Q358.40 27.60 360.60 27.60L360.60 27.60Z M394.00 36.96Q394.00 38.08 393.84 39.20L393.84 39.20L378.76 39.20Q379.04 42.24 380.78 43.92Q382.52 45.60 385.28 45.60L385.28 45.60Q387.48 45.60 388.94 44.84Q390.40 44.08 390.92 42.64L390.92 42.64L393.60 44.04Q392.40 46.16 390.40 47.28Q388.40 48.40 385.28 48.40L385.28 48.40Q380.76 48.40 378.18 45.64Q375.60 42.88 375.60 38L375.60 38Q375.60 33.12 378.06 30.36Q380.52 27.60 385.04 27.60L385.04 27.60Q387.84 27.60 389.88 28.84Q391.92 30.08 392.96 32.20Q394.00 34.32 394.00 36.96L394.00 36.96ZM385.04 30.40Q382.40 30.40 380.78 31.96Q379.16 33.52 378.80 36.36L378.80 36.36L390.92 36.36Q390.60 33.56 389.08 31.98Q387.56 30.40 385.04 30.40L385.04 30.40Z M415.40 28L418.60 28L418.60 48L415.80 48L415.60 44.96Q413.60 48.40 408.44 48.40L408.44 48.40Q405.20 48.40 403.14 46.60Q401.08 44.80 401.08 41.08L401.08 41.08L401.08 28L404.28 28L404.28 40.24Q404.28 43.16 405.48 44.38Q406.68 45.60 409.00 45.60L409.00 45.60Q411.76 45.60 413.58 43.92Q415.40 42.24 415.40 38.88L415.40 38.88L415.40 28Z M436.68 27.60Q438.12 27.60 438.88 28L438.88 28L438.24 31.12Q437.28 30.60 435.72 30.60L435.72 30.60Q434.44 30.60 433.22 31.34Q432.00 32.08 431.22 33.58Q430.44 35.08 430.44 37.20L430.44 37.20L430.44 48L427.24 48L427.24 28L429.84 28L430.28 31.28Q431.96 27.60 436.68 27.60L436.68 27.60Z M450.72 48.40Q447.84 48.40 445.52 47.26Q443.20 46.12 442.12 43.88L442.12 43.88L444.72 42.08Q445.40 43.84 447.08 44.72Q448.76 45.60 451.04 45.60L451.04 45.60Q453.40 45.60 454.64 44.76Q455.88 43.92 455.88 42.64L455.88 42.64Q455.88 41.48 454.72 40.78Q453.56 40.08 450.64 39.56L450.64 39.56Q447.76 39.04 446.08 38.30Q444.40 37.56 443.64 36.42Q442.88 35.28 442.88 33.60L442.88 33.60Q442.88 31.96 443.84 30.60Q444.80 29.24 446.60 28.42Q448.40 27.60 450.76 27.60L450.76 27.60Q453.96 27.60 455.90 28.78Q457.84 29.96 458.68 32.40L458.68 32.40L455.96 34Q455.32 32.08 454.02 31.24Q452.72 30.40 450.76 30.40L450.76 30.40Q448.80 30.40 447.44 31.28Q446.08 32.16 446.08 33.32L446.08 33.32Q446.08 34.64 447.26 35.36Q448.44 36.08 451.48 36.60L451.48 36.60Q455.64 37.28 457.36 38.64Q459.08 40 459.08 42.48L459.08 42.48Q459.08 44.20 458.06 45.54Q457.04 46.88 455.14 47.64Q453.24 48.40 450.72 48.40L450.72 48.40Z M475.92 27.60Q479.32 27.60 481.52 29.56Q483.72 31.52 483.72 35.20L483.72 35.20L483.72 48L480.52 48L480.52 36.32Q480.52 33.20 479.18 31.80Q477.84 30.40 475.60 30.40L475.60 30.40Q474.04 30.40 472.62 31.12Q471.20 31.84 470.30 33.42Q469.40 35 469.40 37.40L469.40 37.40L469.40 48L466.20 48L466.20 18.80L469.40 18.80L469.40 31Q470.40 29.28 472.10 28.44Q473.80 27.60 475.92 27.60L475.92 27.60Z M493.76 24.16Q492.68 24.16 492.02 23.50Q491.36 22.84 491.36 21.76L491.36 21.76Q491.36 20.68 492.02 20.02Q492.68 19.36 493.76 19.36L493.76 19.36Q494.84 19.36 495.50 20.02Q496.16 20.68 496.16 21.76L496.16 21.76Q496.16 22.84 495.50 23.50Q494.84 24.16 493.76 24.16L493.76 24.16ZM495.36 28L495.36 48L492.16 48L492.16 28L495.36 28Z M513.84 27.60Q518.04 27.60 520.50 30.38Q522.96 33.16 522.96 38L522.96 38Q522.96 42.84 520.50 45.62Q518.04 48.40 513.84 48.40L513.84 48.40Q511.64 48.40 509.90 47.44Q508.16 46.48 507.20 44.88L507.20 44.88L507.20 56.40L504.00 56.40L504.00 28L506.80 28L507.00 31.48Q507.88 29.72 509.70 28.66Q511.52 27.60 513.84 27.60L513.84 27.60ZM513.48 45.60Q516.40 45.60 518.08 43.54Q519.76 41.48 519.76 38L519.76 38Q519.76 34.52 518.08 32.46Q516.40 30.40 513.48 30.40L513.48 30.40Q510.60 30.40 508.90 32.40Q507.20 34.40 507.20 37.76L507.20 37.76L507.20 38.24Q507.20 41.60 508.90 43.60Q510.60 45.60 513.48 45.60L513.48 45.60Z M533.80 21.60L533.80 33.04L533.32 39.68L530.92 39.68L530.44 33.04L530.44 21.60L533.80 21.60ZM532.12 43.20Q533.28 43.20 534.00 43.92Q534.72 44.64 534.72 45.80L534.72 45.80Q534.72 46.96 534.00 47.68Q533.28 48.40 532.12 48.40L532.12 48.40Q530.96 48.40 530.24 47.68Q529.52 46.96 529.52 45.80L529.52 45.80Q529.52 44.64 530.24 43.92Q530.96 43.20 532.12 43.20L532.12 43.20Z"/></g> </svg> </g><g opacity="1" transform="rotate(0 445.5806 198.6682)"> <svg width="254.8388" height="36.0145" x="445.5806" y="198.6682" version="1.1" preserveAspectRatio="none" viewBox="2.4 -24.52 235.77429999999998 33.32"> <g transform="matrix(1 0 0 1 0 0)" class="companyName883a75a9-30bd-45f8-9cb8-f35aa3c1a590"><path id="id-883a75a9-30bd-45f8-9cb8-f35aa3c1a590D6z1nYkh12" d="M3.20 0L3.20 0L2.40 0L2.40-9.32L3.20-9.32Q3.20-5.56 5.90-2.92Q8.60-0.28 12.48-0.28L12.48-0.28Q14.08-0.28 15.06-1.22Q16.04-2.16 16.04-3.72L16.04-3.72Q16.04-5.48 13.76-6.72L13.76-6.72Q12.52-7.36 9.48-8.74Q6.44-10.12 5.20-11.08L5.20-11.08Q2.72-13 3.02-16.16Q3.32-19.32 5.40-21.06Q7.48-22.80 10.10-22.80Q12.72-22.80 14.82-22.10Q16.92-21.40 17.20-21.40L17.20-21.40Q18-21.40 18-22.80L18-22.80L18.80-22.80L18.80-15.48L18-15.48Q18-18.36 15.88-20.18Q13.76-22 10.44-22L10.44-22Q8.96-22 8.12-21.14Q7.28-20.28 7.28-19.24Q7.28-18.20 7.56-17.64Q7.84-17.08 8.54-16.62Q9.24-16.16 9.76-15.88Q10.28-15.60 11.42-15.12Q12.56-14.64 13-14.44L13-14.44Q15.20-13.44 15.60-13.26Q16-13.08 16.76-12.68Q17.52-12.28 17.90-11.96Q18.28-11.64 18.88-11.16Q19.48-10.68 19.76-10.18Q20.04-9.68 20.32-9.04L20.32-9.04Q20.88-7.76 20.72-6.04L20.72-6.04Q20.40-2.80 18.30-1.10Q16.20 0.60 12.64 0.60L12.64 0.60Q9.44 0.60 6.28-1.04L6.28-1.04Q5.20-1.60 4.68-1.60L4.68-1.60Q3.20-1.60 3.20 0Z M35.92-17.60L31.28-17.60L31.28-7.84Q31.28-4.40 31.56-3.66Q31.84-2.92 32.16-2.40L32.16-2.40Q32.76-1.36 34.26-1.36Q35.76-1.36 36.36-1.76L36.36-1.76L36.36-0.96Q34.44 0.40 32.16 0.40L32.16 0.40Q28.80 0.40 27.04-1.20Q25.28-2.80 25.28-6.92L25.28-6.92L25.28-17.60L22.32-17.60L22.32-18.40L25.28-18.40Q27.20-18.72 28.68-20.26Q30.16-21.80 30.72-24.52L30.72-24.52L31.28-24.52L31.28-18.40L35.92-18.40L35.92-17.60Z M57.76-0.80Q57.36-0.40 56.24-0.10Q55.12 0.20 53.64 0.20L53.64 0.20Q50.36 0.20 49.52-1.76L49.52-1.76Q47.52 0.32 43.40 0.32L43.40 0.32Q41.20 0.32 39.78-0.70Q38.36-1.72 38.36-3.72L38.36-3.72Q38.36-6.40 40.44-7.86Q42.52-9.32 47.72-9.92L47.72-9.92L49.32-10.12L49.32-12.08Q49.32-15.56 48.80-16.76Q48.28-17.96 46.74-17.96Q45.20-17.96 44.76-17.54Q44.32-17.12 44.44-16.58Q44.56-16.04 44.84-15.16Q45.12-14.28 45.12-13.76L45.12-13.76Q45.12-12.52 44.26-11.66Q43.40-10.80 42.18-10.80Q40.96-10.80 40.08-11.66Q39.20-12.52 39.20-13.76L39.20-13.76Q39.20-15.80 41.30-17.26Q43.40-18.72 47.58-18.72Q51.76-18.72 53.54-17.08Q55.32-15.44 55.32-11.28L55.32-11.28L55.32-4.08Q55.32-1.96 55.84-1.42Q56.36-0.88 57.76-1.20L57.76-1.20L57.76-0.80ZM43.92-4.52Q44.12-3 45.04-2.18Q45.96-1.36 47.18-1.36Q48.40-1.36 49.32-2.56L49.32-2.56L49.32-9.36L47.88-9.16Q46.04-8.92 44.90-7.76Q43.76-6.60 43.92-4.52L43.92-4.52Z M70.16-0.80L70.16 0L60.16 0L60.16-0.80L62.16-0.80L62.16-17.60L60.16-17.60L60.16-18.40L68.16-18.40L68.16-13.64Q68.52-15.60 69.46-16.84Q70.40-18.08 71.54-18.48Q72.68-18.88 73.74-18.88Q74.80-18.88 75.78-18.50Q76.76-18.12 77.24-16.98Q77.72-15.84 77.28-14.70Q76.84-13.56 75.74-13.08Q74.64-12.60 73.72-12.96Q72.80-13.32 72.40-13.94Q72-14.56 71.84-15.12L71.84-15.12Q71.44-16.60 70.76-16.60L70.76-16.60Q70-16.60 69.08-13.98Q68.16-11.36 68.16-8.44L68.16-8.44L68.16-0.80L70.16-0.80Z M91.48-17.60L86.84-17.60L86.84-7.84Q86.84-4.40 87.12-3.66Q87.40-2.92 87.72-2.40L87.72-2.40Q88.32-1.36 89.82-1.36Q91.32-1.36 91.92-1.76L91.92-1.76L91.92-0.96Q90 0.40 87.72 0.40L87.72 0.40Q84.36 0.40 82.60-1.20Q80.84-2.80 80.84-6.92L80.84-6.92L80.84-17.60L77.88-17.60L77.88-18.40L80.84-18.40Q82.76-18.72 84.24-20.26Q85.72-21.80 86.28-24.52L86.28-24.52L86.84-24.52L86.84-18.40L91.48-18.40L91.48-17.60Z M115.72 0L107.72 0L107.72-2.12Q106.96-1.04 105.34-0.30Q103.72 0.44 101.84 0.44L101.84 0.44Q94.72 0.44 94.72-7.28L94.72-7.28L94.72-17.60L92.72-17.60L92.72-18.40L100.72-18.40L100.72-6.40Q100.72-3.56 101.56-2.36Q102.40-1.16 104.08-1.16L104.08-1.16Q106.32-1.16 107.72-3.56L107.72-3.56L107.72-17.60L105.72-17.60L105.72-18.40L113.72-18.40L113.72-0.80L115.72-0.80L115.72 0Z M125.72-9.64L125.72-9.64L125.72-3.04Q126.80-0.88 128.54-0.88Q130.28-0.88 131.52-2.88Q132.76-4.88 132.76-9.30Q132.76-13.72 131.80-15.50Q130.84-17.28 128.88-17.28Q126.92-17.28 126.32-15.68Q125.72-14.08 125.72-9.64ZM125.72-18.40L125.72-16.56Q127.08-18.88 130.60-18.88Q134.12-18.88 136.48-16.32Q138.84-13.76 138.84-9.08Q138.84-4.40 136.52-1.76Q134.20 0.88 130.88 0.88L130.88 0.88Q129.24 0.88 127.80 0.20Q126.36-0.48 125.72-1.84L125.72-1.84L125.72 7.60L127.72 7.60L127.72 8.40L119.72 8.40L119.72-17.60L117.72-17.60L117.72-18.40L125.72-18.40Z M151.84 0L151.84 0L151.04 0L151.04-9.32L151.84-9.32Q151.84-5.56 154.54-2.92Q157.24-0.28 161.12-0.28L161.12-0.28Q162.72-0.28 163.70-1.22Q164.68-2.16 164.68-3.72L164.68-3.72Q164.68-5.48 162.40-6.72L162.40-6.72Q161.16-7.36 158.12-8.74Q155.08-10.12 153.84-11.08L153.84-11.08Q151.36-13 151.66-16.16Q151.96-19.32 154.04-21.06Q156.12-22.80 158.74-22.80Q161.36-22.80 163.46-22.10Q165.56-21.40 165.84-21.40L165.84-21.40Q166.64-21.40 166.64-22.80L166.64-22.80L167.44-22.80L167.44-15.48L166.64-15.48Q166.64-18.36 164.52-20.18Q162.40-22 159.08-22L159.08-22Q157.60-22 156.76-21.14Q155.92-20.28 155.92-19.24Q155.92-18.20 156.20-17.64Q156.48-17.08 157.18-16.62Q157.88-16.16 158.40-15.88Q158.92-15.60 160.06-15.12Q161.20-14.64 161.64-14.44L161.64-14.44Q163.84-13.44 164.24-13.26Q164.64-13.08 165.40-12.68Q166.16-12.28 166.54-11.96Q166.92-11.64 167.52-11.16Q168.12-10.68 168.40-10.18Q168.68-9.68 168.96-9.04L168.96-9.04Q169.52-7.76 169.36-6.04L169.36-6.04Q169.04-2.80 166.94-1.10Q164.84 0.60 161.28 0.60L161.28 0.60Q158.08 0.60 154.92-1.04L154.92-1.04Q153.84-1.60 153.32-1.60L153.32-1.60Q151.84-1.60 151.84 0Z M181.04 4.44Q179.96 6.76 178.76 7.78Q177.56 8.80 175.56 8.80Q173.56 8.80 172.44 7.94Q171.32 7.08 171.32 5.66Q171.32 4.24 172.14 3.40Q172.96 2.56 174.12 2.56Q175.28 2.56 176.08 3Q176.88 3.44 177.20 3.96L177.20 3.96Q178.08 5.36 178.86 5.36Q179.64 5.36 180.24 4L180.24 4L181.92 0.04L172.56-17.60L170.96-17.60L170.96-18.40L181.72-18.40L181.72-17.60L179.72-17.60L185.08-7.04L189.68-17.60L186.48-17.60L186.48-18.40L193.04-18.40L193.04-17.60L190.64-17.60L181.04 4.44Z M216.04-11.12L216.04-0.80L218.04-0.80L218.04 0L208.04 0L208.04-0.80L210.04-0.80L210.04-12Q210.04-14.84 209.20-16.04Q208.36-17.24 206.68-17.24L206.68-17.24Q204.40-17.24 203.04-14.84L203.04-14.84L203.04-0.80L205.04-0.80L205.04 0L195.04 0L195.04-0.80L197.04-0.80L197.04-17.60L195.04-17.60L195.04-18.40L203.04-18.40L203.04-16.32Q203.80-17.36 205.42-18.10Q207.04-18.84 208.92-18.84L208.92-18.84Q216.04-18.84 216.04-11.12L216.04-11.12Z M220.44-9.20L220.44-9.20Q220.44-13.92 223.20-16.36Q225.96-18.80 230.22-18.80Q234.48-18.80 236.56-16.66Q238.64-14.52 238.04-12.24L238.04-12.24Q237.72-11 236.70-10.42Q235.68-9.84 234.48-10.12L234.48-10.12Q231.96-10.72 231.96-13.04L231.96-13.04Q231.96-13.64 232.10-14.86Q232.24-16.08 232.20-16.64Q232.16-17.20 231.96-17.52L231.96-17.52Q231.56-18.20 230.08-18.04L230.08-18.04Q226.48-17.48 226.48-9.22Q226.48-0.96 232.36-0.96L232.36-0.96Q233.72-0.96 235.12-1.68Q236.52-2.40 237.20-3.40L237.20-3.40L237.76-3Q236.84-1.48 235.00-0.56Q233.16 0.36 230.88 0.36L230.88 0.36Q220.44 0.36 220.44-9.20Z"/></g> </svg> </g><g opacity="1" transform="rotate(0 379.0755 182.2515)"> <svg width="54.8922" height="84.1841" x="379.0755" y="182.2515" version="1.1" preserveAspectRatio="none" viewBox="293 183 413.4000244140625 634"> <g transform="matrix(1 0 0 1 0 0)" class="icon1883a75a9-30bd-45f8-9cb8-f35aa3c1a590"><g><polygon points="508,408.1 705.9,570.2 705.6,345 508,183 "/><polygon points="293,570.2 490.8,408.1 490.6,183 293,345 "/><polygon points="509,429.8 509,655 706.4,817 706.4,591.9 "/><polygon points="293,591.9 293,817 490.8,655 490.6,429.8 "/></g></g> </svg> </g></svg>